<?xml version="1.0" encoding="UTF-8" standalone="no"?>
<!-- Created with Inkscape (http://www.inkscape.org/) -->

<svg
   xmlns:dc="http://purl.org/dc/elements/1.1/"
   xmlns:cc="http://creativecommons.org/ns#"
   xmlns:rdf="http://www.w3.org/1999/02/22-rdf-syntax-ns#"
   xmlns:svg="http://www.w3.org/2000/svg"
   xmlns="http://www.w3.org/2000/svg"
   xmlns:sodipodi="http://sodipodi.sourceforge.net/DTD/sodipodi-0.dtd"
   xmlns:inkscape="http://www.inkscape.org/namespaces/inkscape"
   width="16.933001mm"
   height="16.933001mm"
   viewBox="0 0 16.933001 16.933001"
   version="1.1"
   id="svg3455"
   sodipodi:docname="b-instagram.svg"
   inkscape:version="0.92.3 (2405546, 2018-03-11)">
  <defs
     id="defs3449" />
  <sodipodi:namedview
     id="base"
     pagecolor="#666666"
     bordercolor="#000000"
     borderopacity="0.87843137"
     inkscape:pageopacity="0"
     inkscape:pageshadow="2"
     inkscape:zoom="1"
     inkscape:cx="31.999371"
     inkscape:cy="31.999371"
     inkscape:document-units="mm"
     inkscape:current-layer="g3439"
     showgrid="false"
     inkscape:window-width="1024"
     inkscape:window-height="715"
     inkscape:window-x="-4"
     inkscape:window-y="-4"
     inkscape:window-maximized="1"
     borderlayer="true" />
  <metadata
     id="metadata3452">
    <rdf:RDF>
      <cc:Work
         rdf:about="">
        <dc:format>image/svg+xml</dc:format>
        <dc:type
           rdf:resource="http://purl.org/dc/dcmitype/StillImage" />
        <dc:title />
      </cc:Work>
    </rdf:RDF>
  </metadata>
  <g
     inkscape:label="Capa 1"
     inkscape:groupmode="layer"
     id="layer1"
     transform="translate(170.46726,-98.260451)">
    <g
       transform="matrix(0.26458333,0,0,0.26458333,-205.39068,146.14056)"
       id="g3439">
      <g
         transform="matrix(0.63998741,0,0,0.63998741,-230.70243,-171.26786)"
         id="g3447">
        <circle
           style="opacity:1;fill:#000000;fill-opacity:0.94954128;stroke:none;stroke-width:2;stroke-linecap:round;stroke-linejoin:round;stroke-miterlimit:4;stroke-dasharray:none;stroke-opacity:1;paint-order:stroke fill markers"
           id="circle3405"
           cx="616.72437"
           cy="34.849182"
           r="50" />
        <path
           inkscape:connector-curvature="0"
           id="rect3687"
           d="m 605.84107,9.06837 c -8.25078,0 -14.96042,6.71335 -14.96042,14.96415 v 21.63707 c 0,8.25076 6.70964,14.9604 14.96042,14.9604 h 21.76666 c 8.25078,0 14.96042,-6.70964 14.96042,-14.9604 V 24.03252 c 0,-8.25079 -6.70964,-14.96414 -14.96042,-14.96414 z m 0,4.43263 h 21.76666 c 5.8722,0 10.53155,4.65936 10.53155,10.53152 v 21.63707 c 0,5.87218 -4.65935,10.52782 -10.53155,10.52782 h -21.76666 c -5.8722,0 -10.52784,-4.65565 -10.52784,-10.52782 V 24.03252 c 0,-5.87216 4.65564,-10.53152 10.52784,-10.53152 z m 24.75504,4.43256 c -1.71223,0 -3.09947,1.38723 -3.09947,3.09944 0,1.71228 1.38724,3.09951 3.09947,3.09951 1.71223,0 3.09948,-1.38723 3.09948,-3.09951 0,-1.71221 -1.38725,-3.09944 -3.09948,-3.09944 z m -13.87171,3.64008 c -7.30607,0 -13.27552,5.96949 -13.27552,13.27555 0,7.30608 5.96945,13.27553 13.27552,13.27553 7.30607,0 13.27922,-5.96945 13.27922,-13.27553 0,-7.30606 -5.97315,-13.27555 -13.27922,-13.27555 z m 0,4.43263 c 4.91093,0 8.84664,3.932 8.84664,8.84292 0,4.91094 -3.93571,8.84294 -8.84664,8.84294 -4.91093,0 -8.84294,-3.932 -8.84294,-8.84294 0,-4.91092 3.93201,-8.84292 8.84294,-8.84292 z"
           style="color:#000000;font-style:normal;font-variant:normal;font-weight:normal;font-stretch:normal;font-size:medium;line-height:normal;font-family:Sans;-inkscape-font-specification:Sans;text-indent:0;text-align:start;text-decoration:none;text-decoration-line:none;letter-spacing:normal;word-spacing:normal;text-transform:none;writing-mode:lr-tb;direction:ltr;baseline-shift:baseline;text-anchor:start;display:inline;overflow:visible;visibility:visible;fill:#ffffff;fill-opacity:1;stroke:none;stroke-width:37.40000153;marker:none;enable-background:accumulate" />
      </g>
    </g>
  </g>
</svg>
