<?xml version="1.0" encoding="UTF-8" standalone="no"?>
<!-- Created with Inkscape (http://www.inkscape.org/) -->

<svg
   xmlns:dc="http://purl.org/dc/elements/1.1/"
   xmlns:cc="http://creativecommons.org/ns#"
   xmlns:rdf="http://www.w3.org/1999/02/22-rdf-syntax-ns#"
   xmlns:svg="http://www.w3.org/2000/svg"
   xmlns="http://www.w3.org/2000/svg"
   xmlns:sodipodi="http://sodipodi.sourceforge.net/DTD/sodipodi-0.dtd"
   xmlns:inkscape="http://www.inkscape.org/namespaces/inkscape"
   width="16.933001mm"
   height="16.933001mm"
   viewBox="0 0 16.933001 16.933001"
   version="1.1"
   id="svg3455"
   sodipodi:docname="b-kwai.svg"
   inkscape:version="0.92.3 (2405546, 2018-03-11)">
  <defs
     id="defs3449" />
  <sodipodi:namedview
     id="base"
     pagecolor="#666666"
     bordercolor="#000000"
     borderopacity="0.87843137"
     inkscape:pageopacity="0"
     inkscape:pageshadow="2"
     inkscape:zoom="3.7547371"
     inkscape:cx="50"
     inkscape:cy="50.000008"
     inkscape:document-units="mm"
     inkscape:current-layer="g3439"
     showgrid="false"
     inkscape:window-width="1024"
     inkscape:window-height="715"
     inkscape:window-x="-4"
     inkscape:window-y="-4"
     inkscape:window-maximized="1"
     borderlayer="true" />
  <metadata
     id="metadata3452">
    <rdf:RDF>
      <cc:Work
         rdf:about="">
        <dc:format>image/svg+xml</dc:format>
        <dc:type
           rdf:resource="http://purl.org/dc/dcmitype/StillImage" />
        <dc:title />
      </cc:Work>
    </rdf:RDF>
  </metadata>
  <g
     inkscape:label="Capa 1"
     inkscape:groupmode="layer"
     id="layer1"
     transform="translate(170.46726,-98.260454)">
    <g
       transform="matrix(0.26458333,0,0,0.26458333,-205.39068,146.14056)"
       id="g3439">
      <g
         transform="matrix(0.63998741,0,0,0.63998741,-230.70243,-324.86483)"
         id="g3423">
        <circle
           r="50"
           cy="274.84918"
           cx="616.72437"
           id="circle3411"
           style="opacity:1;fill:#000000;fill-opacity:0.94954128;stroke:none;stroke-width:2;stroke-linecap:round;stroke-linejoin:round;stroke-miterlimit:4;stroke-dasharray:none;stroke-opacity:1;paint-order:stroke fill markers" />
        <path
           inkscape:connector-curvature="0"
           style="fill:#ffffff;fill-opacity:1;fill-rule:evenodd;stroke:none;stroke-width:1.52744722"
           id="Fill-3-Copy-4"
           d="m 604.68881,299.67605 c -0.81286,-0.0376 -2.85644,-0.41683 -4.92727,-0.99381 -2.05471,-0.56252 -3.45841,-1.31362 -3.45841,-1.31362 -0.77233,-0.40991 -1.05419,-1.05666 -1.16242,-1.72487 0.033,0.013 -0.26167,-2.09868 -0.26167,-6.18364 0,-3.10089 0.15881,-4.76243 0.23141,-5.28711 0.0779,-0.55263 0.34072,-1.00496 1.04212,-0.97081 0.70148,0.035 1.6551,0.0173 3.89783,0.4323 2.67433,0.50645 3.98477,0.93416 4.62083,1.15751 0.57526,0.21023 1.18094,0.66962 1.29795,1.53024 0,0 0.30977,2.26145 0.30515,5.69022 0.005,2.77516 -0.19142,5.52471 -0.2806,6.4137 -0.0832,0.82331 -0.49207,1.28747 -1.30492,1.24989 z m 12.1081,-9.53644 c -7.1e-4,-0.49044 -0.19632,-0.94741 -0.57327,-1.30918 l -6.92836,-6.79665 c -0.79501,-0.83379 -1.74098,-1.35356 -2.89193,-1.59619 0,0 -2.61388,-0.64529 -6.50499,-1.29782 -3.89119,-0.65255 -4.90733,-0.57887 -4.90733,-0.57887 -3.44984,0 -3.57416,3.67996 -3.60979,4.05154 -0.0852,0.88819 -0.2879,3.24207 -0.2879,6.51877 0,3.86706 0.16445,6.54662 0.36299,8.18457 0.30179,2.49978 2.22097,3.67181 3.10434,4.11594 0.2239,0.11208 2.62094,1.1272 5.05152,1.87696 1.63812,0.50624 4.26309,1.24632 5.4928,1.44075 0.40405,0.0648 2.77942,0.47303 3.90157,-1.01512 l 7.36242,-9.54942 c 0.30522,-0.4423 0.42793,-0.62228 0.42793,-1.2993 z m 16.09133,-13.9295 c -1.04427,-0.10596 -2.09471,-0.12875 -3.14246,-0.0684 l -16.55865,1.55082 c 0,0 -1.09768,0.16727 -1.723,1.00194 -0.4837,0.64563 -0.58541,1.18434 -0.58541,1.18434 0.21907,0.21783 0.30763,0.30718 0.42834,0.41777 l 6.5388,6.67227 c 0.73121,0.71822 1.15552,1.41696 1.15552,2.46281 v 3.75827 c 0,0.66828 -0.0576,1.22972 -0.42887,1.73368 l -3.5068,4.76607 3.5282,1.36923 c 1.33902,0.44143 2.58242,0.42879 3.98008,0.21594 l 15.1885,-3.48835 c 0,0 2.73888,-0.72904 2.73929,-3.33182 v -9.25925 c 0,-0.17864 -0.10356,-0.33239 -0.28985,-0.29474 l -9.69852,1.90727 c -0.36204,0.0736 -0.58876,0.38369 -0.58876,0.73142 v 4.48537 c 0,0.26791 0.31152,0.48394 0.58876,0.42174 l 3.03894,-0.70969 c 0.158,-0.0437 0.28005,0.0725 0.28629,0.28795 v 1.44688 c -0.0145,0.29776 -0.24833,0.50322 -0.57763,0.57879 l -3.43975,0.73827 c 0.002,-0.0108 -2.30848,0.5888 -2.30848,-1.88207 v -5.72081 c 0,-2.49629 1.80929,-2.74914 1.80929,-2.74914 l 10.67864,-2.05962 c 0.27811,-0.0526 0.50107,-0.29925 0.50107,-0.56643 v -2.33028 c -0.01,-2.57299 -2.49305,-2.73227 -2.49305,-2.73227 z m -19.84705,-24.27198 c 3.97163,0.16902 6.98218,3.94235 6.77573,8.53113 -0.22914,4.57567 -3.6713,8.22537 -7.49767,8.06772 -3.97074,-0.16909 -6.84886,-3.9794 -6.64328,-8.56738 0.22913,-4.5756 3.53887,-8.18912 7.36522,-8.03147 z m 15.99929,10.73321 c 0.16276,-3.12858 2.39408,-5.60127 5.02815,-5.50103 2.50426,0.11256 4.50397,2.76891 4.36984,5.79578 -0.16149,3.1376 -2.42769,5.51623 -5.05608,5.43246 -2.51083,-0.12996 -4.47477,-2.69045 -4.34191,-5.72721 z m 13.31479,0.4089 c -0.007,-6.17543 -4.59962,-11.1411 -10.25258,-11.1411 -3.29967,0 -6.29351,1.74726 -8.23088,4.3407 -1.48844,-6.59185 -6.98868,-11.44889 -13.57379,-11.4306 -7.85905,0.022 -14.17759,6.81553 -14.15136,15.19251 0.0263,8.46202 6.37874,15.33731 14.15136,15.31372 0.44766,-0.005 21.86593,-1.4446 21.80467,-1.44574 6.17301,-0.5332 10.28412,-4.79766 10.25258,-10.82949 z" />
      </g>
    </g>
  </g>
</svg>
