<?xml version="1.0" encoding="UTF-8" standalone="no"?>
<!-- Created with Inkscape (http://www.inkscape.org/) -->

<svg
   xmlns:dc="http://purl.org/dc/elements/1.1/"
   xmlns:cc="http://creativecommons.org/ns#"
   xmlns:rdf="http://www.w3.org/1999/02/22-rdf-syntax-ns#"
   xmlns:svg="http://www.w3.org/2000/svg"
   xmlns="http://www.w3.org/2000/svg"
   xmlns:sodipodi="http://sodipodi.sourceforge.net/DTD/sodipodi-0.dtd"
   xmlns:inkscape="http://www.inkscape.org/namespaces/inkscape"
   width="16.933001mm"
   height="16.933001mm"
   viewBox="0 0 16.933001 16.933001"
   version="1.1"
   id="svg3455"
   sodipodi:docname="b-soundcloud.svg"
   inkscape:version="0.92.3 (2405546, 2018-03-11)">
  <defs
     id="defs3449" />
  <sodipodi:namedview
     id="base"
     pagecolor="#666666"
     bordercolor="#000000"
     borderopacity="0.87843137"
     inkscape:pageopacity="0"
     inkscape:pageshadow="2"
     inkscape:zoom="3.7547371"
     inkscape:cx="50"
     inkscape:cy="49.999999"
     inkscape:document-units="mm"
     inkscape:current-layer="g3439"
     showgrid="false"
     inkscape:window-width="1024"
     inkscape:window-height="715"
     inkscape:window-x="-4"
     inkscape:window-y="-4"
     inkscape:window-maximized="1"
     borderlayer="true" />
  <metadata
     id="metadata3452">
    <rdf:RDF>
      <cc:Work
         rdf:about="">
        <dc:format>image/svg+xml</dc:format>
        <dc:type
           rdf:resource="http://purl.org/dc/dcmitype/StillImage" />
        <dc:title />
      </cc:Work>
    </rdf:RDF>
  </metadata>
  <g
     inkscape:label="Capa 1"
     inkscape:groupmode="layer"
     id="layer1"
     transform="translate(170.46726,-98.260451)">
    <g
       transform="matrix(0.26458333,0,0,0.26458333,-205.39068,146.14056)"
       id="g3439">
      <g
         transform="matrix(0.63998741,0,0,0.63998741,-230.70243,-248.06635)"
         id="g3427">
        <circle
           r="50"
           cy="154.84918"
           cx="616.72437"
           id="circle3393"
           style="opacity:1;fill:#000000;fill-opacity:0.94954128;stroke:none;stroke-width:2;stroke-linecap:round;stroke-linejoin:round;stroke-miterlimit:4;stroke-dasharray:none;stroke-opacity:1;paint-order:stroke fill markers" />
        <path
           style="fill:#ffffff;stroke-width:0.23333411"
           d="m 624.65213,139.46441 c -1.94087,0 -3.8323,0.38605 -5.5039,1.04102 -0.65054,0.25433 -0.82495,0.51719 -0.83008,1.02539 v 27.66016 c 0.007,0.53433 0.41527,0.97828 0.93164,1.03125 0.021,0.002 23.71115,0.0117 23.86328,0.0117 4.75652,0 8.61133,-3.90195 8.61133,-8.7168 0,-4.81228 -3.85505,-8.71289 -8.61133,-8.71289 -1.18044,0 -2.30434,0.2407 -3.33008,0.67773 -0.6818,-7.85659 -7.1912,-14.01758 -15.13086,-14.01758 z m -8.09375,2.04102 c -0.5201,0 -0.94058,0.4311 -0.94921,0.95703 l -0.39063,19.63672 0.39258,7.12109 c 0.006,0.51917 0.4274,0.94922 0.94726,0.94922 0.51217,0 0.94298,-0.42946 0.94532,-0.95703 l 0.42382,-7.11328 -0.42382,-19.63672 c -0.002,-0.5278 -0.43315,-0.95703 -0.94532,-0.95703 z m -2.9414,1.69336 c -0.48137,0 -0.87887,0.40135 -0.88867,0.89648 l -0.33399,17.99414 0.33399,7.23633 c 0.01,0.48837 0.4073,0.88867 0.88867,0.88867 0.4816,0 0.8812,-0.40001 0.88867,-0.89257 l 0.375,-7.22657 -0.375,-18.00195 c -0.007,-0.49443 -0.40684,-0.89453 -0.88867,-0.89453 z m -8.79102,2.06836 c -0.38873,0 -0.70096,0.31295 -0.70703,0.71289 l -0.44726,16.11133 0.44726,7.39453 c 0.006,0.3969 0.3183,0.70898 0.70703,0.70898 0.3864,0 0.69452,-0.31155 0.70899,-0.71289 l 0.49804,-7.39062 -0.49804,-16.11133 c -0.0147,-0.39994 -0.32259,-0.71289 -0.70899,-0.71289 z m 2.91016,0.35156 c -0.42,0 -0.75912,0.3406 -0.77149,0.77344 l -0.40234,15.69922 0.40625,7.32422 c 0.01,0.42956 0.34758,0.77148 0.76758,0.77148 0.41697,0 0.75498,-0.3406 0.76758,-0.77344 l 0.45898,-7.32226 -0.45898,-15.69922 c -0.0126,-0.4326 -0.35061,-0.77344 -0.76758,-0.77344 z m -5.79492,0.23242 c -0.35187,0 -0.63593,0.28811 -0.65039,0.65235 l -0.47461,15.58789 0.47461,7.43945 c 0.0147,0.36237 0.29852,0.64844 0.65039,0.64844 0.34966,0 0.63609,-0.28253 0.65039,-0.64649 v -0.004 l 0.53711,-7.4375 -0.53711,-15.58789 c -0.0124,-0.36657 -0.29969,-0.65235 -0.65039,-0.65235 z m 8.72461,0.2793 c -0.45431,0 -0.82052,0.36624 -0.83008,0.83594 l -0.37305,15.125 0.37305,7.28125 c 0.01,0.46293 0.37554,0.82812 0.83008,0.82812 0.4529,0 0.81809,-0.36623 0.82812,-0.83594 l 0.41406,-7.27343 -0.41406,-15.12696 c -0.01,-0.46666 -0.37499,-0.83398 -0.82812,-0.83398 z m -11.58399,0.98047 c -0.31967,0 -0.57648,0.26093 -0.59375,0.5918 l -0.50976,14.38476 0.51171,7.51953 c 0.0149,0.32854 0.27213,0.58789 0.5918,0.58789 0.31118,0 0.56935,-0.25697 0.58594,-0.58593 v -0.004 l 0.57812,-7.51758 -0.57812,-14.38476 c -0.0147,-0.33087 -0.2735,-0.5918 -0.58594,-0.5918 z m -2.8457,2.73633 c -0.28164,0 -0.51203,0.23617 -0.5293,0.5332 l -0.54687,11.70703 0.54687,7.5625 c 0.0173,0.2982 0.2479,0.5332 0.5293,0.5332 0.28334,0 0.51503,-0.23399 0.5332,-0.53125 v -0.002 l 0.61914,-7.5625 -0.61914,-11.70703 c -0.0173,-0.2968 -0.24947,-0.5332 -0.5332,-0.5332 z m -5.60938,4.06836 c -0.21816,0 -0.39522,0.17612 -0.41015,0.41015 l -0.61914,7.75977 0.61914,7.50195 c 0.0149,0.2317 0.19199,0.4082 0.41015,0.4082 0.21514,0 0.38916,-0.17673 0.41016,-0.4082 l 0.70117,-7.50195 -0.70117,-7.76172 c -0.021,-0.2331 -0.19502,-0.4082 -0.41016,-0.4082 z m -2.77539,0.26757 c -0.18246,0 -0.33062,0.14731 -0.34765,0.34961 l -0.65625,7.54883 0.65625,7.27539 c 0.017,0.20114 0.16519,0.34571 0.34765,0.34571 0.18387,0 0.3329,-0.14457 0.35157,-0.34571 l 0.74218,-7.27539 -0.74218,-7.54883 c -0.0187,-0.2023 -0.1677,-0.34961 -0.35157,-0.34961 z m 5.56836,0.23438 c -0.25433,0 -0.45358,0.20252 -0.46875,0.46875 l -0.58398,7.19922 0.58398,7.56445 c 0.0154,0.26834 0.21637,0.46875 0.47071,0.46875 0.2506,0 0.44993,-0.20213 0.4707,-0.4707 l -0.002,0.002 0.66015,-7.56445 -0.66015,-7.20117 c -0.0187,-0.26414 -0.21987,-0.4668 -0.47071,-0.4668 z m -8.31445,1.01367 c -0.14817,0 -0.27337,0.12238 -0.29297,0.28711 l -0.6875,6.36328 0.6875,6.22266 c 0.0196,0.16707 0.1448,0.28711 0.29297,0.28711 0.14443,0 0.2683,-0.11786 0.28906,-0.28516 l 0.78516,-6.22461 -0.7832,-6.36328 c -0.0233,-0.1673 -0.14659,-0.28711 -0.29102,-0.28711 z m -2.58789,2.43555 c -0.14817,0 -0.26416,0.11517 -0.28516,0.27734 l -0.50781,3.9375 0.50781,3.86719 c 0.021,0.16357 0.13699,0.27539 0.28516,0.27539 0.14187,0 0.25658,-0.11042 0.27734,-0.27539 l 0.60938,-3.86719 -0.60938,-3.93945 c -0.021,-0.15984 -0.13547,-0.27539 -0.27734,-0.27539 z"
           id="XMLID_527_"
           inkscape:connector-curvature="0" />
      </g>
    </g>
  </g>
</svg>
