<?xml version="1.0" encoding="UTF-8" standalone="no"?>
<!-- Created with Inkscape (http://www.inkscape.org/) -->

<svg
   xmlns:dc="http://purl.org/dc/elements/1.1/"
   xmlns:cc="http://creativecommons.org/ns#"
   xmlns:rdf="http://www.w3.org/1999/02/22-rdf-syntax-ns#"
   xmlns:svg="http://www.w3.org/2000/svg"
   xmlns="http://www.w3.org/2000/svg"
   xmlns:sodipodi="http://sodipodi.sourceforge.net/DTD/sodipodi-0.dtd"
   xmlns:inkscape="http://www.inkscape.org/namespaces/inkscape"
   width="16.933001mm"
   height="16.933001mm"
   viewBox="0 0 16.933001 16.933001"
   version="1.1"
   id="svg3455"
   sodipodi:docname="b-spotify.svg"
   inkscape:version="0.92.3 (2405546, 2018-03-11)">
  <defs
     id="defs3449" />
  <sodipodi:namedview
     id="base"
     pagecolor="#666666"
     bordercolor="#000000"
     borderopacity="0.87843137"
     inkscape:pageopacity="0"
     inkscape:pageshadow="2"
     inkscape:zoom="3.7547371"
     inkscape:cx="50.000003"
     inkscape:cy="50.000008"
     inkscape:document-units="mm"
     inkscape:current-layer="g3439"
     showgrid="false"
     inkscape:window-width="1024"
     inkscape:window-height="715"
     inkscape:window-x="-4"
     inkscape:window-y="-4"
     inkscape:window-maximized="1"
     borderlayer="true" />
  <metadata
     id="metadata3452">
    <rdf:RDF>
      <cc:Work
         rdf:about="">
        <dc:format>image/svg+xml</dc:format>
        <dc:type
           rdf:resource="http://purl.org/dc/dcmitype/StillImage" />
        <dc:title />
      </cc:Work>
    </rdf:RDF>
  </metadata>
  <g
     inkscape:label="Capa 1"
     inkscape:groupmode="layer"
     id="layer1"
     transform="translate(170.46726,-98.260454)">
    <g
       transform="matrix(0.26458333,0,0,0.26458333,-205.39068,146.14056)"
       id="g3439">
      <g
         transform="matrix(0.63998741,0,0,0.63998741,-77.105474,-324.86483)"
         id="g3415">
        <circle
           r="50"
           cy="274.84918"
           cx="376.7244"
           id="circle3407"
           style="opacity:1;fill:#000000;fill-opacity:0.94954128;stroke:none;stroke-width:2;stroke-linecap:round;stroke-linejoin:round;stroke-miterlimit:4;stroke-dasharray:none;stroke-opacity:1;paint-order:stroke fill markers" />
        <path
           inkscape:connector-curvature="0"
           id="path888"
           d="m 376.7244,247.34918 c -15.18742,0 -27.5,12.31259 -27.5,27.5 0,15.18904 12.31258,27.5 27.5,27.5 15.18812,0 27.5,-12.31094 27.5,-27.5 0,-15.18645 -12.31106,-27.5 -27.5,-27.5 z m -4.18516,14.54707 c 7.99937,-0.0206 16.69878,1.62156 23.07637,5.40761 1.22224,0.72539 1.62468,2.30285 0.9002,3.52345 -0.72243,1.22226 -2.30519,1.62588 -3.52344,0.90019 h -0.002 c -8.86435,-5.26435 -23.48511,-5.74798 -31.94727,-3.17969 -1.35892,0.4121 -2.79582,-0.35561 -3.20762,-1.71445 -0.41181,-1.35949 0.35458,-2.79666 1.71446,-3.20977 3.64274,-1.10583 8.18983,-1.71497 12.98945,-1.72734 z m 0.48984,9.47675 c 6.8217,0.14869 13.66098,1.94326 18.96641,5.20352 1.00815,0.62063 1.32751,1.94084 0.70684,2.94766 -0.62205,1.00911 -1.94207,1.32649 -2.9498,0.70683 -7.39035,-4.54286 -18.66012,-5.85949 -27.40333,-3.20547 -1.13396,0.34251 -2.33064,-0.29678 -2.6748,-1.42871 -0.34142,-1.13394 0.29896,-2.33001 1.43086,-2.67481 3.74519,-1.13635 7.83082,-1.63823 11.92382,-1.54902 z m 0.17189,8.96543 c 5.82701,0.10659 11.03729,1.54795 15.56757,4.31622 0.80782,0.49587 1.06301,1.54903 0.56718,2.35683 -0.4939,0.81015 -1.54942,1.0629 -2.35682,0.56933 -6.45768,-3.94682 -14.58456,-4.83789 -24.15704,-2.65116 -0.92235,0.21149 -1.84367,-0.36695 -2.05391,-1.28907 -0.21106,-0.92244 0.36639,-1.8416 1.29122,-2.05175 3.92828,-0.8981 7.64558,-1.31435 11.1418,-1.2504 z"
           style="fill:#ffffff;stroke-width:0.01876481" />
      </g>
    </g>
  </g>
</svg>
