<?xml version="1.0" encoding="UTF-8" standalone="no"?>
<!-- Created with Inkscape (http://www.inkscape.org/) -->

<svg
   xmlns:dc="http://purl.org/dc/elements/1.1/"
   xmlns:cc="http://creativecommons.org/ns#"
   xmlns:rdf="http://www.w3.org/1999/02/22-rdf-syntax-ns#"
   xmlns:svg="http://www.w3.org/2000/svg"
   xmlns="http://www.w3.org/2000/svg"
   xmlns:sodipodi="http://sodipodi.sourceforge.net/DTD/sodipodi-0.dtd"
   xmlns:inkscape="http://www.inkscape.org/namespaces/inkscape"
   width="16.933001mm"
   height="16.933001mm"
   viewBox="0 0 16.933001 16.933001"
   version="1.1"
   id="svg3455"
   sodipodi:docname="b-tiktok.svg"
   inkscape:version="0.92.3 (2405546, 2018-03-11)">
  <defs
     id="defs3449" />
  <sodipodi:namedview
     id="base"
     pagecolor="#666666"
     bordercolor="#000000"
     borderopacity="0.87843137"
     inkscape:pageopacity="0"
     inkscape:pageshadow="2"
     inkscape:zoom="3.7547371"
     inkscape:cx="3.92487"
     inkscape:cy="50.000008"
     inkscape:document-units="mm"
     inkscape:current-layer="g3439"
     showgrid="false"
     inkscape:window-width="1024"
     inkscape:window-height="715"
     inkscape:window-x="-4"
     inkscape:window-y="-4"
     inkscape:window-maximized="1"
     borderlayer="true" />
  <metadata
     id="metadata3452">
    <rdf:RDF>
      <cc:Work
         rdf:about="">
        <dc:format>image/svg+xml</dc:format>
        <dc:type
           rdf:resource="http://purl.org/dc/dcmitype/StillImage" />
        <dc:title />
      </cc:Work>
    </rdf:RDF>
  </metadata>
  <g
     inkscape:label="Capa 1"
     inkscape:groupmode="layer"
     id="layer1"
     transform="translate(170.46726,-98.260454)">
    <g
       transform="matrix(0.26458333,0,0,0.26458333,-205.39068,146.14056)"
       id="g3439">
      <g
         transform="matrix(0.63998741,0,0,0.63998741,-153.90396,-324.86483)"
         id="g3419">
        <circle
           style="opacity:1;fill:#000000;fill-opacity:0.94954128;stroke:none;stroke-width:2;stroke-linecap:round;stroke-linejoin:round;stroke-miterlimit:4;stroke-dasharray:none;stroke-opacity:1;paint-order:stroke fill markers"
           id="circle3409"
           cx="496.7244"
           cy="274.84918"
           r="50" />
        <path
           style="fill:#ffffff;stroke-width:2.08330727"
           inkscape:connector-curvature="0"
           d="m 497.8191,249.89088 c 2.72913,-0.0417 5.43743,-0.0208 8.14573,-0.0417 0.16665,3.18746 1.31248,6.43741 3.64579,8.68737 2.3333,2.31249 5.62493,3.37497 8.83321,3.72914 v 8.39572 c -2.99995,-0.10416 -6.02075,-0.72915 -8.74988,-2.02081 -1.18749,-0.54165 -2.29164,-1.22914 -3.37497,-1.93747 -0.0208,6.08326 0.0208,12.16652 -0.0417,18.22894 -0.16666,2.91663 -1.12498,5.81243 -2.81246,8.20823 -2.72914,3.99995 -7.45824,6.60408 -12.31235,6.68742 -2.97912,0.16666 -5.95826,-0.64583 -8.49989,-2.14581 -4.20828,-2.47914 -7.16658,-7.02075 -7.60407,-11.89569 -0.0417,-1.04165 -0.0625,-2.0833 -0.0208,-3.10412 0.375,-3.95829 2.33331,-7.74991 5.37494,-10.33321 3.45829,-2.99996 8.29156,-4.43744 12.81234,-3.58328 0.0417,3.08329 -0.0833,6.16658 -0.0833,9.24988 -2.06249,-0.66666 -4.47912,-0.47916 -6.29159,0.77082 -1.3125,0.85416 -2.31248,2.16664 -2.8333,3.64579 -0.4375,1.06249 -0.3125,2.22914 -0.29166,3.35412 0.49998,3.41663 3.79161,6.29159 7.29156,5.9791 2.33331,-0.0208 4.56245,-1.37499 5.77076,-3.35413 0.39584,-0.68749 0.83334,-1.39581 0.85416,-2.20831 0.20833,-3.72911 0.125,-7.4374 0.14583,-11.16652 0.0208,-8.39573 -0.0208,-16.77062 0.0417,-25.14552 z"
           id="path1456" />
      </g>
    </g>
  </g>
</svg>
